<?xml version="1.0" encoding="UTF-8" standalone="no"?>
<!-- Created with Inkscape (http://www.inkscape.org/) -->

<svg
   viewBox="0 0 287.35998 287.35998"
   version="1.1"
   id="svg1"
   sodipodi:docname="Lidraughts Board.svg"
   inkscape:version="1.3.2 (091e20e, 2023-11-25, custom)"
   xmlns:inkscape="http://www.inkscape.org/namespaces/inkscape"
   xmlns:sodipodi="http://sodipodi.sourceforge.net/DTD/sodipodi-0.dtd"
   xmlns="http://www.w3.org/2000/svg"
   xmlns:svg="http://www.w3.org/2000/svg">
  <sodipodi:namedview
     id="namedview1"
     pagecolor="#ffffff"
     bordercolor="#111111"
     borderopacity="1"
     inkscape:showpageshadow="0"
     inkscape:pageopacity="0"
     inkscape:pagecheckerboard="1"
     inkscape:deskcolor="#d1d1d1"
     inkscape:document-units="mm"
     showgrid="true"
     showguides="false"
     inkscape:zoom="0.50548531"
     inkscape:cx="542.05334"
     inkscape:cy="543.04249"
     inkscape:window-width="1292"
     inkscape:window-height="745"
     inkscape:window-x="-8"
     inkscape:window-y="-8"
     inkscape:window-maximized="1"
     inkscape:current-layer="layer1">
    <inkscape:grid
       type="axonomgrid"
       id="grid2"
       units="mm"
       originx="0"
       originy="0"
       spacingx="0"
       spacingy="35.919999"
       empcolor="#0099e5"
       empopacity="0.30196078"
       color="#0099e5"
       opacity="0.14901961"
       empspacing="0"
       dotted="false"
       gridanglex="45"
       gridanglez="45"
       visible="true" />
  </sodipodi:namedview>
  <defs
     id="defs1">
    <clipPath
       clipPathUnits="userSpaceOnUse"
       id="clipPath54">
      <rect
         style="fill:#000000;fill-opacity:1;fill-rule:evenodd;stroke:none;stroke-width:1;stroke-linecap:round;stroke-linejoin:round;stroke-dasharray:none;stroke-opacity:1;paint-order:stroke fill markers"
         id="rect55"
         width="287.35999"
         height="287.35999"
         x="0"
         y="0" />
    </clipPath>
    <clipPath
       clipPathUnits="userSpaceOnUse"
       id="clipPath55">
      <rect
         style="fill:#000000;fill-opacity:1;fill-rule:evenodd;stroke:none;stroke-width:1;stroke-linecap:round;stroke-linejoin:round;stroke-dasharray:none;stroke-opacity:1;paint-order:stroke fill markers"
         id="rect56"
         width="287.35999"
         height="287.35999"
         x="0"
         y="0" />
    </clipPath>
  </defs>
  <g
     inkscape:label="Layer 1"
     inkscape:groupmode="layer"
     id="layer1">
    <rect
       style="fill:#d18b47;fill-opacity:1;fill-rule:evenodd;stroke:none;stroke-width:3;stroke-linecap:round;stroke-linejoin:round;stroke-dasharray:none;stroke-opacity:1;paint-order:stroke fill markers"
       id="rect36"
       width="287.35999"
       height="287.35999"
       x="0"
       y="0" />
    <path
       style="display:inline;fill:#ffce9e;fill-opacity:1;fill-rule:evenodd;stroke:none;stroke-width:1;stroke-linecap:round;stroke-linejoin:round;stroke-dasharray:none;stroke-opacity:1;paint-order:stroke fill markers"
       d="m 53.880003,-17.960001 35.92,35.920002 35.920007,-35.920002 35.92,35.920002 35.92,-35.920002 35.92,35.920002 35.92001,-35.920002 35.91999,35.920002 -35.91999,35.920002 35.91999,35.92 -35.91999,35.920007 35.91999,35.92 -35.91999,35.92 35.91999,35.92 -71.84,71.84 -35.92,-35.91999 -35.92,35.91999 -35.92,-35.91999 -35.920007,35.91999 -35.92,-35.91999 -35.920002,35.91999 -35.920002,-35.91999 35.920002,-35.92001 -35.920002,-35.92 35.920002,-35.92 -35.920002,-35.92 35.920002,-35.920007 -35.920002,-35.92 z"
       id="path20"
       clip-path="url(#clipPath55)" />
    <path
       id="path19"
       style="fill:none;fill-rule:evenodd;stroke:#000000;stroke-width:1;stroke-linecap:round;stroke-linejoin:round;stroke-dasharray:none;stroke-opacity:1;paint-order:stroke fill markers"
       d="m 233.48001,305.32001 71.84,-71.84 m 0,-71.84 -143.68,143.68 m -71.840007,0 L 305.32001,89.800003 m 0,-71.840002 L 17.960001,305.32001 M -17.960001,269.40002 269.40002,-17.960001 m -71.84001,0 L -17.960001,197.56001 M 125.72001,-17.960001 -17.960001,125.72001 m 0,-71.840007 71.840004,-71.840004 M 17.960001,17.960001 269.40002,269.40002 m 0,-287.360021 35.91999,35.920002 m 0,71.840002 -107.76,-107.760004 m -71.84,0 179.6,179.600011 M 53.880003,-17.960001 305.32001,233.48001 M -17.960001,53.880003 233.48001,305.32001 m -251.440011,-179.6 179.600011,179.6 m -179.600011,-107.76 107.760004,107.76 m -107.760004,-35.91999 35.920002,35.91999"
       clip-path="url(#clipPath54)" />
  </g>
</svg>
