<?xml version="1.0" encoding="UTF-8" standalone="no"?>
<!-- Created with Inkscape (http://www.inkscape.org/) -->

<svg
   viewBox="0 0 359.19997 359.19997"
   version="1.1"
   id="svg1"
   sodipodi:docname="Lidraughts Board (50).svg"
   inkscape:version="1.3.2 (091e20e, 2023-11-25, custom)"
   xml:space="preserve"
   xmlns:inkscape="http://www.inkscape.org/namespaces/inkscape"
   xmlns:sodipodi="http://sodipodi.sourceforge.net/DTD/sodipodi-0.dtd"
   xmlns="http://www.w3.org/2000/svg"
   xmlns:svg="http://www.w3.org/2000/svg"><sodipodi:namedview
     id="namedview1"
     pagecolor="#ffffff"
     bordercolor="#111111"
     borderopacity="1"
     inkscape:showpageshadow="0"
     inkscape:pageopacity="0"
     inkscape:pagecheckerboard="1"
     inkscape:deskcolor="#d1d1d1"
     inkscape:document-units="mm"
     showgrid="true"
     showguides="false"
     inkscape:zoom="0.36762559"
     inkscape:cx="680.03971"
     inkscape:cy="678.67963"
     inkscape:window-width="1292"
     inkscape:window-height="745"
     inkscape:window-x="-8"
     inkscape:window-y="-8"
     inkscape:window-maximized="1"
     inkscape:current-layer="layer1"><inkscape:grid
       type="axonomgrid"
       id="grid2"
       units="mm"
       originx="0"
       originy="71.839996"
       spacingx="0"
       spacingy="35.919999"
       empcolor="#0099e5"
       empopacity="0.30196078"
       color="#0099e5"
       opacity="0.14901961"
       empspacing="0"
       dotted="false"
       gridanglex="45"
       gridanglez="45"
       visible="true" /></sodipodi:namedview><defs
     id="defs1"><clipPath
       clipPathUnits="userSpaceOnUse"
       id="clipPath56"><rect
         style="fill:none;fill-opacity:1;fill-rule:evenodd;stroke:none;stroke-width:1;stroke-linecap:round;stroke-linejoin:round;stroke-dasharray:none;stroke-opacity:1;paint-order:stroke fill markers"
         id="rect56"
         width="287.35999"
         height="287.35999"
         x="0"
         y="0" /></clipPath><clipPath
       clipPathUnits="userSpaceOnUse"
       id="clipPath76"><rect
         style="fill:none;fill-opacity:1;fill-rule:evenodd;stroke:none;stroke-width:1;stroke-linecap:round;stroke-linejoin:round;stroke-dasharray:none;stroke-opacity:1;paint-order:stroke fill markers"
         id="rect77"
         width="359.19998"
         height="359.19998"
         x="0"
         y="-71.839996" /></clipPath><clipPath
       clipPathUnits="userSpaceOnUse"
       id="clipPath77"><rect
         style="fill:none;fill-opacity:1;fill-rule:evenodd;stroke:none;stroke-width:1;stroke-linecap:round;stroke-linejoin:round;stroke-dasharray:none;stroke-opacity:1;paint-order:stroke fill markers"
         id="rect78"
         width="359.19998"
         height="359.19998"
         x="0"
         y="-71.839996" /></clipPath></defs><g
     inkscape:label="Layer 1"
     inkscape:groupmode="layer"
     id="layer1"
     transform="translate(0,71.839996)"><rect
       style="display:inline;fill:#d18b47;fill-opacity:1;fill-rule:evenodd;stroke:none;stroke-width:3.75;stroke-linecap:round;stroke-linejoin:round;stroke-dasharray:none;stroke-opacity:1;paint-order:stroke fill markers"
       id="rect36"
       width="359.19998"
       height="359.19998"
       x="0"
       y="-71.839996" /><path
       id="path57"
       style="display:inline;fill:#ffce9e;fill-opacity:1;fill-rule:evenodd;stroke:none;stroke-width:1;stroke-linecap:round;stroke-linejoin:round;stroke-dasharray:none;stroke-opacity:1;paint-order:stroke fill markers"
       d="m 53.879915,-89.80014 -71.840059,71.840059 35.920288,35.920288 -35.920288,35.919772 35.920288,35.919771 -35.920288,35.92029 35.920288,35.91977 -35.920288,35.92029 35.920288,35.91977 -35.920288,35.92029 35.920288,35.91977 35.919771,-35.91977 35.920288,35.91977 35.919767,-35.91977 35.91978,35.91977 35.92028,-35.91977 35.91978,35.91977 35.92028,-35.91977 35.91977,35.91977 35.92029,-35.91977 35.91977,-35.92029 -35.91977,-35.91977 35.91977,-35.92029 -35.91977,-35.91977 35.91977,-35.92029 -35.91977,-35.919771 35.91977,-35.919772 -35.91977,-35.920288 35.91977,-35.919771 -35.91977,-35.920288 -35.92029,35.920288 -35.91977,-35.920288 -35.92028,35.920288 -35.91978,-35.920288 -35.92028,35.920288 -35.91978,-35.919771 -35.919767,35.919771 z"
       clip-path="url(#clipPath77)" /><path
       id="path76"
       style="display:inline;fill:none;fill-opacity:1;fill-rule:evenodd;stroke:#000000;stroke-width:1;stroke-linecap:round;stroke-linejoin:round;stroke-dasharray:none;stroke-opacity:1;paint-order:stroke fill markers"
       d="M 89.799995,305.32 -17.959999,197.55999 m 0,-71.84 L 161.63999,305.32 m 71.84,0 L -17.959999,53.879999 m 0,-71.839997 L 305.31998,305.32 M 377.15999,233.47999 53.879998,-89.799995 m 71.839992,0 251.44,251.439985 m 0,-71.839995 -179.6,-179.59999 m 71.84,0 107.76,107.759994 m 0,215.519991 -71.84001,71.84001 m -71.84017,-8e-5 143.68018,-143.67993 m 0,-71.839995 -215.52,215.520005 m -71.839995,0 L 377.15991,17.960205 m 8e-5,-71.840202 L 17.959999,305.32 M -17.959999,269.39998 341.24016,-89.80014 m -71.84017,1.45e-4 L -17.959999,197.55999 M 197.55999,-89.799995 -17.959999,125.71999 m 0,-71.839991 L 125.71999,-89.799995 M -17.959999,-17.959998 53.879998,-89.799995 M 17.959999,-53.879997 341.23997,269.39998"
       clip-path="url(#clipPath76)" /></g></svg>
