<?xml version="1.0" encoding="UTF-8" standalone="no"?>
<!-- Created with Inkscape (http://www.inkscape.org/) -->

<svg
   viewBox="0 0 406.39999 406.39999"
   version="1.1"
   id="svg1"
   inkscape:version="1.3.2 (091e20e, 2023-11-25, custom)"
   sodipodi:docname="Board (32).svg"
   xmlns:inkscape="http://www.inkscape.org/namespaces/inkscape"
   xmlns:sodipodi="http://sodipodi.sourceforge.net/DTD/sodipodi-0.dtd"
   xmlns="http://www.w3.org/2000/svg"
   xmlns:svg="http://www.w3.org/2000/svg">
  <sodipodi:namedview
     id="namedview1"
     pagecolor="#ffffff"
     bordercolor="#ffffff"
     borderopacity="1"
     inkscape:showpageshadow="0"
     inkscape:pageopacity="0"
     inkscape:pagecheckerboard="1"
     inkscape:deskcolor="#505050"
     inkscape:document-units="mm"
     showgrid="true"
     inkscape:zoom="0.35742188"
     inkscape:cx="767.99999"
     inkscape:cy="767.99999"
     inkscape:window-width="1292"
     inkscape:window-height="745"
     inkscape:window-x="-8"
     inkscape:window-y="-8"
     inkscape:window-maximized="1"
     inkscape:current-layer="layer1" />
  <defs
     id="defs1" />
  <g
     inkscape:label="Layer 1"
     inkscape:groupmode="layer"
     id="layer1">
    <rect
       style="display:inline;fill:#ffce9e;fill-opacity:1;stroke:#d18b47;stroke-width:3;stroke-linecap:round;stroke-linejoin:round;stroke-dasharray:none;stroke-opacity:1"
       id="rect13"
       width="406.39999"
       height="406.39999"
       x="0"
       y="0" />
    <path
       id="path1"
       style="fill:#d18b47;stroke:#000000;stroke-width:3;stroke-linecap:round;stroke-linejoin:round;stroke-dasharray:none;stroke-opacity:1"
       d="M 25.4,381 381,25.4 M 127,381 25.4,279.4 M 25.4,177.8 228.6,381 M 330.2,381 25.4,76.199999 M 76.199999,25.4 381,330.2 M 381,228.6 177.8,25.4 m 101.6,0 L 381,127 M 76.199999,25.4 25.4,76.199999 M 25.4,177.8 177.8,25.4 m 101.6,0 -254,254 M 381,330.2 330.2,381 M 228.6,381 381,228.6 M 381,127 127,381" />
    <path
       style="fill:#d18b47;fill-opacity:1;stroke:none;stroke-width:3;stroke-linecap:round;stroke-linejoin:round;stroke-dasharray:none;stroke-opacity:1"
       d="M 406.39999,355.6 355.6,406.39999 h 50.79999 z"
       id="path13" />
    <path
       style="fill:#d18b47;fill-opacity:1;stroke:none;stroke-width:3;stroke-linecap:round;stroke-linejoin:round;stroke-dasharray:none;stroke-opacity:1"
       d="M 50.799999,0 0,50.799999 V 0 Z"
       id="path14" />
  </g>
</svg>
