<?xml version="1.0" encoding="UTF-8" standalone="no"?>
<!-- Created with Inkscape (http://www.inkscape.org/) -->

<svg
   viewBox="0 0 508 508"
   version="1.1"
   id="svg1"
   sodipodi:docname="Board (50).svg"
   inkscape:version="1.3.2 (091e20e, 2023-11-25, custom)"
   xmlns:inkscape="http://www.inkscape.org/namespaces/inkscape"
   xmlns:sodipodi="http://sodipodi.sourceforge.net/DTD/sodipodi-0.dtd"
   xmlns="http://www.w3.org/2000/svg"
   xmlns:svg="http://www.w3.org/2000/svg">
  <sodipodi:namedview
     id="namedview1"
     pagecolor="#ffffff"
     bordercolor="#111111"
     borderopacity="1"
     inkscape:showpageshadow="0"
     inkscape:pageopacity="0"
     inkscape:pagecheckerboard="1"
     inkscape:deskcolor="#d1d1d1"
     inkscape:document-units="mm"
     showgrid="true"
     inkscape:zoom="0.2859375"
     inkscape:cx="960"
     inkscape:cy="960"
     inkscape:window-width="1292"
     inkscape:window-height="745"
     inkscape:window-x="-8"
     inkscape:window-y="-8"
     inkscape:window-maximized="1"
     inkscape:current-layer="layer1">
    <inkscape:grid
       id="grid23"
       units="mm"
       originx="0"
       originy="0"
       spacingx="25.4"
       spacingy="25.4"
       empcolor="#0099e5"
       empopacity="0.30196078"
       color="#0099e5"
       opacity="0.14901961"
       empspacing="2"
       dotted="false"
       gridanglex="30"
       gridanglez="30"
       visible="true" />
  </sodipodi:namedview>
  <defs
     id="defs1" />
  <g
     inkscape:label="Layer 1"
     inkscape:groupmode="layer"
     id="layer1">
    <rect
       style="fill:#ffce9e;fill-opacity:1;stroke:#d18b47;stroke-width:3;stroke-linecap:round;stroke-linejoin:round;stroke-opacity:1"
       id="rect39"
       width="508"
       height="508"
       x="0"
       y="0" />
    <path
       id="path39"
       style="fill:#d18b47;fill-opacity:1;stroke:#000000;stroke-width:3;stroke-linecap:round;stroke-linejoin:round;stroke-opacity:1"
       d="M 127,482.59999 25.399999,381 m 0,-101.6 203.199991,203.19999 m 101.60001,0 L 25.399999,177.8 m 0,-101.600001 406.399991,406.399991 m 50.8,-50.8 L 76.199999,25.399999 m 101.600001,0 L 482.59999,330.2 m 0,-101.60001 L 279.4,25.399999 m 101.6,0 L 482.59999,127 M 25.399999,76.199999 l 50.8,-50.8 m 101.600001,0 L 25.399999,177.8 m 0,101.6 L 279.4,25.399999 m 101.6,0 L 25.399999,381 m 406.399991,101.59999 50.8,-50.8 m 0,-101.59999 L 330.2,482.59999 m -101.60001,0 254,-254 M 482.59999,127 127,482.59999 m -101.600001,0 L 482.59999,25.399999" />
    <path
       style="fill:#d18b47;fill-opacity:1;stroke:none;stroke-width:3;stroke-linecap:round;stroke-linejoin:round;stroke-opacity:1"
       d="m 507.99999,457.19999 -50.8,50.8 h 50.8 z"
       id="path40" />
    <path
       style="fill:#d18b47;fill-opacity:1;stroke:none;stroke-width:3;stroke-linecap:round;stroke-linejoin:round;stroke-opacity:1"
       d="M 50.799999,0 0,50.799999 V 0 Z"
       id="path41" />
  </g>
</svg>
